Coordinates
version=1
nRows=7
nColumns=40
inDegrees=yes

Units are S.I. units (second, meters, Newtons, ...)
If the header above contains a line with 'inDegrees', this indicates whether rotational values are in degrees (yes) or radians (no).

endheader
time	pelvis_tilt	pelvis_list	pelvis_rotation	pelvis_tx	pelvis_ty	pelvis_tz	hip_flexion_r	hip_adduction_r	hip_rotation_r	knee_angle_r	knee_angle_r_beta	ankle_angle_r	subtalar_angle_r	mtp_angle_r	hip_flexion_l	hip_adduction_l	hip_rotation_l	knee_angle_l	knee_angle_l_beta	ankle_angle_l	subtalar_angle_l	mtp_angle_l	lumbar_extension	lumbar_bending	lumbar_rotation	arm_flex_r	arm_add_r	arm_rot_r	elbow_flex_r	pro_sup_r	wrist_flex_r	wrist_dev_r	arm_flex_l	arm_add_l	arm_rot_l	elbow_flex_l	pro_sup_l	wrist_flex_l	wrist_dev_l
      0.45000000	     -1.46084485	     -6.53069113	     82.98062520	      0.19121296	      0.91776531	      1.53416594	     19.74724333	     -9.21137288	     -2.30750862	     67.01239024	      1.16958685	     -3.71777203	      0.00000000	      0.00000000	     20.10689086	      2.11760718	     -3.92995989	     15.94191789	      0.27823896	      4.84035962	      0.00000000	      0.00000000	     -4.28919614	     -2.22807447	      0.66539873	      0.00000000	      0.00000000	      0.00000000	      0.00000000	      0.00000000	      0.00000000	      0.00000000	      0.00000000	      0.00000000	      0.00000000	      0.00000000	      0.00000000	      0.00000000	      0.00000000
      0.46000000	     -1.16933772	     -6.87153490	     83.25260209	      0.19004137	      0.92030138	      1.52230724	     22.00640056	     -8.82064415	     -2.87263277	     67.08686454	      1.17088667	     -2.82670710	      0.00000000	      0.00000000	     18.90260634	      2.07026445	     -3.59381100	     14.62379575	      0.25523339	      4.96209763	      0.00000000	      0.00000000	     -4.08614084	     -1.82460209	      0.23394915	      0.00000000	      0.00000000	      0.00000000	      0.00000000	      0.00000000	      0.00000000	      0.00000000	      0.00000000	      0.00000000	      0.00000000	      0.00000000	      0.00000000	      0.00000000	      0.00000000
      0.47000000	     -0.91897429	     -7.20166210	     83.59595590	      0.18880859	      0.92250531	      1.51038558	     24.13487024	     -8.49475977	     -3.48333199	     66.80136679	      1.16590380	     -1.83164506	      0.00000000	      0.00000000	     17.70487936	      2.09451574	     -3.11183278	     13.31763775	      0.23243663	      5.02447469	      0.00000000	      0.00000000	     -3.88231908	     -1.47278691	     -0.27236422	      0.00000000	      0.00000000	      0.00000000	      0.00000000	      0.00000000	      0.00000000	      0.00000000	      0.00000000	      0.00000000	      0.00000000	      0.00000000	      0.00000000	      0.00000000	      0.00000000
      0.48000000	     -0.66781758	     -7.47827504	     83.93567776	      0.18777910	      0.92440305	      1.49852960	     26.11503736	     -8.13290759	     -4.07365123	     66.19136337	      1.15525723	     -0.98709222	      0.00000000	      0.00000000	     16.49407170	      2.08661075	     -2.68491413	     12.07669291	      0.21077805	      5.13053128	      0.00000000	      0.00000000	     -3.74088070	     -1.14427399	     -0.78092312	      0.00000000	      0.00000000	      0.00000000	      0.00000000	      0.00000000	      0.00000000	      0.00000000	      0.00000000	      0.00000000	      0.00000000	      0.00000000	      0.00000000	      0.00000000	      0.00000000
      0.49000000	     -0.41627737	     -7.63599521	     84.38836024	      0.18661798	      0.92614381	      1.48647586	     27.78834424	     -7.83529827	     -4.75297154	     65.20336248	      1.13801336	     -0.06346562	      0.00000000	      0.00000000	     15.14877661	      2.12040570	     -2.04671326	     10.83089045	      0.18903470	      5.17852453	      0.00000000	      0.00000000	     -3.72644599	     -0.82499922	     -1.37407351	      0.00000000	      0.00000000	      0.00000000	      0.00000000	      0.00000000	      0.00000000	      0.00000000	      0.00000000	      0.00000000	      0.00000000	      0.00000000	      0.00000000	      0.00000000	      0.00000000
      0.50000000	     -0.15659130	     -7.77090546	     84.79640256	      0.18572083	      0.92755712	      1.47441358	     29.33378923	     -7.45320166	     -5.31710538	     63.88459276	      1.11499648	      0.70547029	      0.00000000	      0.00000000	     13.79851377	      2.09542954	     -1.49243444	      9.63447790	      0.16815336	      5.31447829	      0.00000000	      0.00000000	     -3.72476789	     -0.52261362	     -1.93598624	      0.00000000	      0.00000000	      0.00000000	      0.00000000	      0.00000000	      0.00000000	      0.00000000	      0.00000000	      0.00000000	      0.00000000	      0.00000000	      0.00000000	      0.00000000	      0.00000000
      0.51000000	      0.08104653	     -7.86563118	     85.24263223	      0.18485837	      0.92863489	      1.46228120	     30.70225374	     -7.08228063	     -5.84203856	     62.24120995	      1.08631404	      1.43107803	      0.00000000	      0.00000000	     12.44581131	      2.08269589	     -0.88977252	      8.50659447	      0.14846808	      5.47251548	      0.00000000	      0.00000000	     -3.75090176	     -0.25143490	     -2.48545634	      0.00000000	      0.00000000	      0.00000000	      0.00000000	      0.00000000	      0.00000000	      0.00000000	      0.00000000	      0.00000000	      0.00000000	      0.00000000	      0.00000000	      0.00000000	      0.00000000
